<svg width="10" height="10" viewBox="0 0 10 10" fill="none" xmlns="http://www.w3.org/2000/svg">
<path d="M0 3.47656L4.96484 3.04688L10 3.47656V3.91211L9.21484 4.96875L10 6.08789V6.52344L5.03906 6.98047L0 6.52344V6.08789L0.716797 4.92773L0 3.91211V3.47656Z" fill="#D80027"/>
<path d="M0 0H10V3.47656H0V0Z" fill="#338AF3"/>
<path d="M0 3.91211H10V6.08789H0V3.91211Z" fill="#EEEEEE"/>
<path d="M0 6.52344H10V10H0V6.52344Z" fill="#6DA544"/>
<path d="M2.28945 2.06446C2.28919 1.84157 2.36519 1.6253 2.50481 1.45157C2.64444 1.27783 2.8393 1.15709 3.05703 1.10939C2.98834 1.09476 2.91827 1.08756 2.84804 1.0879C2.71225 1.09002 2.57839 1.12044 2.45501 1.17722C2.33164 1.234 2.22146 1.31589 2.13153 1.41766C2.04159 1.51942 1.97387 1.63883 1.93269 1.76825C1.89151 1.89767 1.87778 2.03426 1.89237 2.16928C1.90697 2.30431 1.94956 2.43481 2.01745 2.55244C2.08533 2.67007 2.177 2.77225 2.2866 2.85245C2.3962 2.93265 2.52133 2.98911 2.65399 3.01822C2.78665 3.04732 2.92392 3.04844 3.05703 3.0215C2.61758 2.92384 2.28945 2.53321 2.28945 2.06446ZM3.63711 2.50978L3.70156 2.7129H3.9164L3.74062 2.83986L3.80898 3.04298L3.6332 2.91798L3.46328 3.04298L3.52968 2.83986L3.3539 2.7129H3.56875L3.63711 2.50978ZM4.3207 2.50978L4.38711 2.7129H4.60195L4.42617 2.83986L4.49258 3.04298L4.3207 2.91798L4.14492 3.04298L4.21328 2.83986L4.0375 2.7129H4.25234L4.3207 2.50978ZM5.00429 2.50978L5.0707 2.7129H5.28554L5.10976 2.83986L5.17812 3.04298L5.00234 2.91798L4.83047 3.04298L4.89687 2.83986L4.72109 2.7129H4.93593L5.00429 2.50978ZM5.68789 2.50978L5.75429 2.7129H5.96914L5.79336 2.83986L5.86172 3.04298L5.68594 2.91798L5.51406 3.04298L5.58047 2.83986L5.40469 2.7129H5.61953L5.68789 2.50978ZM6.37148 2.50978L6.43789 2.7129H6.65273L6.47695 2.83986L6.54531 3.04298L6.36953 2.91798L6.19765 3.04298L6.26406 2.83986L6.09218 2.7129H6.30703L6.37148 2.50978ZM4.3207 1.79884L4.38711 2.00196H4.60195L4.42617 2.12892L4.49258 2.33204L4.3207 2.20509L4.14492 2.33204L4.21328 2.12892L4.0375 2.00196H4.25234L4.3207 1.79884ZM5.00429 1.79884L5.0707 2.00196H5.28554L5.10976 2.12892L5.17812 2.33204L5.00234 2.20509L4.83047 2.33204L4.89687 2.12892L4.72109 2.00196H4.93593L5.00429 1.79884ZM5.68789 1.79884L5.75429 2.00196H5.96914L5.79336 2.12892L5.86172 2.33204L5.68594 2.20509L5.51406 2.33204L5.58047 2.12892L5.40469 2.00196H5.61953L5.68789 1.79884ZM6.37148 1.79884L6.43789 2.00196H6.65273L6.47695 2.12892L6.54531 2.33204L6.36953 2.20509L6.19765 2.33204L6.26406 2.12892L6.09218 2.00196H6.30703L6.37148 1.79884ZM5.00429 1.0879L5.0707 1.29103H5.28554L5.10976 1.41603L5.18008 1.62111L5.00429 1.49415L4.83242 1.62111L4.89883 1.41603L4.72304 1.29103H4.93789L5.00429 1.0879ZM5.68789 1.0879L5.75429 1.29103H5.96914L5.79336 1.41603L5.86367 1.62111L5.68789 1.49415L5.51601 1.62111L5.58242 1.41603L5.40664 1.29103H5.62148L5.68789 1.0879ZM6.37148 1.0879L6.43789 1.29103H6.65273L6.47695 1.41603L6.54726 1.62111L6.37148 1.49415L6.19961 1.62111L6.26601 1.41603L6.09414 1.29103H6.30898L6.37148 1.0879Z" fill="#EEEEEE"/>
</svg>
